<svg width="408" height="158" viewBox="0 0 408 158" fill="none" xmlns="http://www.w3.org/2000/svg">
<path d="M127.031 106.688H129.031V106.587L129.021 106.487L127.031 106.688ZM127.031 147V149H129.031V147H127.031ZM117.281 147H115.281V149H117.281V147ZM117.281 100.188V98.1875H115.281V100.188H117.281ZM126.375 100.188L128.365 99.9866L128.183 98.1875H126.375V100.188ZM147.281 124.219L149.212 124.74L149.213 124.735L147.281 124.219ZM144.75 129.688L143.127 128.519L143.122 128.526L143.117 128.533L144.75 129.688ZM140.656 133.344L141.587 135.114L141.596 135.109L141.604 135.105L140.656 133.344ZM129.688 133.344L128.669 135.065L128.683 135.074L128.698 135.082L129.688 133.344ZM125.938 129.719L124.253 130.797L124.261 130.81L124.27 130.823L125.938 129.719ZM123.5 124.375L121.584 124.948L121.587 124.96L121.591 124.972L123.5 124.375ZM122.094 117.906H120.094V118.051L120.115 118.194L122.094 117.906ZM122.094 116.625L120.112 116.354L120.094 116.489V116.625H122.094ZM125.969 104.438L127.64 105.536L127.647 105.526L125.969 104.438ZM129.688 100.844L128.687 99.1118L129.688 100.844ZM144.75 104.281L143.132 105.456L143.141 105.469L143.15 105.481L144.75 104.281ZM138.031 112.938L136.062 113.289L136.064 113.295L138.031 112.938ZM137.031 109.906L135.26 110.834L135.264 110.843L135.269 110.852L137.031 109.906ZM127.531 109.375L129.165 110.528L129.173 110.517L129.181 110.506L127.531 109.375ZM126.438 112L124.484 111.57L124.48 111.589L124.476 111.608L126.438 112ZM126.094 115.562L124.094 115.531L124.094 115.547V115.562H126.094ZM126.094 119H124.094V119.013L124.094 119.027L126.094 119ZM126.75 123.188L124.856 123.83L124.862 123.849L124.869 123.868L126.75 123.188ZM128.781 126.031L127.581 127.631L127.602 127.646L127.622 127.661L128.781 126.031ZM135.281 126.312L136.38 127.984L136.391 127.977L135.281 126.312ZM137.062 124.219L135.282 123.308L135.274 123.324L135.265 123.341L137.062 124.219ZM138.031 121.125L136.062 120.773L136.059 120.791L136.057 120.808L138.031 121.125ZM125.031 106.688V147H129.031V106.688H125.031ZM127.031 145H117.281V149H127.031V145ZM119.281 147V100.188H115.281V147H119.281ZM117.281 102.188H126.375V98.1875H117.281V102.188ZM124.385 100.388L125.041 106.888L129.021 106.487L128.365 99.9866L124.385 100.388ZM146.125 116.719V117.375H150.125V116.719H146.125ZM146.125 117.375C146.125 119.681 145.861 121.787 145.349 123.702L149.213 124.735C149.826 122.443 150.125 119.986 150.125 117.375H146.125ZM145.35 123.697C144.843 125.576 144.095 127.174 143.127 128.519L146.373 130.856C147.655 129.076 148.594 127.028 149.212 124.74L145.35 123.697ZM143.117 128.533C142.184 129.853 141.051 130.86 139.708 131.583L141.604 135.105C143.512 134.078 145.107 132.647 146.383 130.842L143.117 128.533ZM139.726 131.573C138.433 132.253 136.876 132.625 135 132.625V136.625C137.415 136.625 139.63 136.143 141.587 135.114L139.726 131.573ZM135 132.625C133.242 132.625 131.825 132.259 130.677 131.606L128.698 135.082C130.55 136.137 132.675 136.625 135 136.625V132.625ZM130.706 131.622C129.506 130.913 128.472 129.924 127.605 128.615L124.27 130.823C125.445 132.597 126.91 134.025 128.669 135.065L130.706 131.622ZM127.622 128.641C126.729 127.246 125.988 125.63 125.409 123.778L121.591 124.972C122.262 127.12 123.146 129.067 124.253 130.797L127.622 128.641ZM125.416 123.802C124.842 121.883 124.394 119.823 124.073 117.618L120.115 118.194C120.461 120.573 120.949 122.825 121.584 124.948L125.416 123.802ZM124.094 117.906V116.625H120.094V117.906H124.094ZM124.075 116.896C124.396 114.548 124.855 112.39 125.447 110.418L121.616 109.269C120.957 111.464 120.458 113.827 120.112 116.354L124.075 116.896ZM125.447 110.418C126.027 108.486 126.765 106.867 127.64 105.536L124.298 103.339C123.173 105.049 122.286 107.035 121.616 109.269L125.447 110.418ZM127.647 105.526C128.488 104.229 129.503 103.26 130.688 102.576L128.687 99.1118C126.914 100.136 125.449 101.563 124.291 103.349L127.647 105.526ZM130.688 102.576C131.808 101.929 133.209 101.562 134.969 101.562V97.5625C132.645 97.5625 130.525 98.0506 128.687 99.1118L130.688 102.576ZM134.969 101.562C136.835 101.562 138.41 101.918 139.74 102.575L141.51 98.9879C139.549 98.0195 137.352 97.5625 134.969 97.5625V101.562ZM139.74 102.575C141.087 103.24 142.213 104.191 143.132 105.456L146.368 103.106C145.078 101.329 143.454 99.9475 141.51 98.9879L139.74 102.575ZM143.15 105.481C144.099 106.746 144.842 108.307 145.349 110.204L149.213 109.171C148.595 106.859 147.651 104.816 146.35 103.081L143.15 105.481ZM145.349 110.204C145.859 112.112 146.125 114.278 146.125 116.719H150.125C150.125 113.992 149.828 111.471 149.213 109.171L145.349 110.204ZM140.344 117.375V116.719H136.344V117.375H140.344ZM140.344 116.719C140.344 115.245 140.232 113.862 139.999 112.58L136.064 113.295C136.247 114.304 136.344 115.443 136.344 116.719H140.344ZM140 112.586C139.763 111.256 139.371 110.037 138.794 108.961L135.269 110.852C135.608 111.484 135.883 112.286 136.062 113.289L140 112.586ZM138.803 108.978C138.201 107.829 137.371 106.876 136.296 106.19L134.142 109.56C134.567 109.832 134.945 110.233 135.26 110.834L138.803 108.978ZM136.296 106.19C135.16 105.464 133.85 105.156 132.469 105.156V109.156C133.254 109.156 133.777 109.327 134.142 109.56L136.296 106.19ZM132.469 105.156C131.097 105.156 129.804 105.376 128.662 105.903L130.338 109.535C130.821 109.312 131.507 109.156 132.469 109.156V105.156ZM128.662 105.903C127.526 106.427 126.588 107.214 125.882 108.244L129.181 110.506C129.474 110.078 129.849 109.761 130.338 109.535L128.662 105.903ZM125.897 108.222C125.213 109.191 124.758 110.327 124.484 111.57L128.391 112.43C128.576 111.59 128.85 110.975 129.165 110.528L125.897 108.222ZM124.476 111.608C124.239 112.794 124.116 114.106 124.094 115.531L128.094 115.594C128.113 114.352 128.219 113.289 128.399 112.392L124.476 111.608ZM124.094 115.562V119H128.094V115.562H124.094ZM124.094 119.027C124.117 120.757 124.36 122.366 124.856 123.83L128.644 122.545C128.307 121.55 128.112 120.368 128.094 118.973L124.094 119.027ZM124.869 123.868C125.423 125.397 126.316 126.682 127.581 127.631L129.981 124.431C129.413 124.005 128.952 123.395 128.631 122.507L124.869 123.868ZM127.622 127.661C129 128.641 130.699 129.031 132.531 129.031V125.031C131.238 125.031 130.437 124.755 129.94 124.401L127.622 127.661ZM132.531 129.031C133.923 129.031 135.248 128.728 136.38 127.984L134.183 124.641C133.857 124.855 133.348 125.031 132.531 125.031V129.031ZM136.391 127.977C137.466 127.26 138.284 126.276 138.86 125.096L135.265 123.341C134.966 123.953 134.596 124.365 134.172 124.648L136.391 127.977ZM138.843 125.13C139.412 124.018 139.791 122.781 140.006 121.442L136.057 120.808C135.897 121.803 135.63 122.628 135.282 123.308L138.843 125.13ZM140 121.477C140.232 120.181 140.344 118.812 140.344 117.375H136.344C136.344 118.605 136.248 119.736 136.062 120.773L140 121.477ZM173.156 125.844H171.156V125.92L171.162 125.997L173.156 125.844ZM173.156 100.188V98.1875H171.156V100.188H173.156ZM182.969 100.188H184.969V98.1875H182.969V100.188ZM182.969 134V136H184.969V134H182.969ZM173.781 134L171.787 134.153L171.929 136H173.781V134ZM174.188 118.938L174.141 116.938L172.188 116.983V118.938H174.188ZM176.875 118.875H178.875V116.828L176.829 116.876L176.875 118.875ZM176.062 125.156L174.138 124.612L174.135 124.622L174.132 124.632L176.062 125.156ZM173.688 130.156L172.088 128.956L172.082 128.964L172.076 128.971L173.688 130.156ZM169.781 133.469L170.676 135.258L170.685 135.253L169.781 133.469ZM159.781 133.938L159.123 135.826L159.14 135.832L159.157 135.838L159.781 133.938ZM156.219 131.719L154.79 133.118L154.797 133.126L154.805 133.133L156.219 131.719ZM153.906 127.812L152.011 128.452L152.014 128.46L153.906 127.812ZM153.094 100.188V98.1875H151.094V100.188H153.094ZM162.844 100.188H164.844V98.1875H162.844V100.188ZM163.156 124.375L161.259 125.007L161.272 125.046L161.286 125.084L163.156 124.375ZM164.062 125.875L162.611 127.25L162.629 127.27L162.648 127.289L164.062 125.875ZM165.5 126.75L164.868 128.647L164.878 128.651L164.888 128.654L165.5 126.75ZM171.469 125.969L172.641 127.589L172.647 127.585L171.469 125.969ZM173.562 123.062L171.668 122.42L171.665 122.43L171.662 122.44L173.562 123.062ZM175.156 125.844V100.188H171.156V125.844H175.156ZM173.156 102.188H182.969V98.1875H173.156V102.188ZM180.969 100.188V134H184.969V100.188H180.969ZM182.969 132H173.781V136H182.969V132ZM175.775 133.847L175.15 125.691L171.162 125.997L171.787 134.153L175.775 133.847ZM174.234 120.937L176.921 120.874L176.829 116.876L174.141 116.938L174.234 120.937ZM174.875 118.875C174.875 120.987 174.623 122.895 174.138 124.612L177.987 125.7C178.585 123.584 178.875 121.305 178.875 118.875H174.875ZM174.132 124.632C173.67 126.334 172.981 127.765 172.088 128.956L175.287 131.356C176.519 129.714 177.413 127.812 177.993 125.681L174.132 124.632ZM172.076 128.971C171.219 130.137 170.159 131.035 168.877 131.685L170.685 135.253C172.528 134.319 174.072 133.009 175.299 131.341L172.076 128.971ZM168.887 131.68C167.672 132.287 166.187 132.625 164.375 132.625V136.625C166.688 136.625 168.807 136.192 170.676 135.258L168.887 131.68ZM164.375 132.625C162.892 132.625 161.575 132.421 160.405 132.037L159.157 135.838C160.78 136.37 162.524 136.625 164.375 136.625V132.625ZM160.439 132.049C159.34 131.666 158.413 131.085 157.633 130.305L154.805 133.133C156.024 134.352 157.472 135.251 159.123 135.826L160.439 132.049ZM157.647 130.319C156.889 129.545 156.26 128.514 155.799 127.165L152.014 128.46C152.636 130.277 153.549 131.851 154.79 133.118L157.647 130.319ZM155.801 127.173C155.347 125.828 155.094 124.139 155.094 122.062H151.094C151.094 124.444 151.382 126.588 152.011 128.452L155.801 127.173ZM155.094 122.062V100.188H151.094V122.062H155.094ZM153.094 102.188H162.844V98.1875H153.094V102.188ZM160.844 100.188V122.125H164.844V100.188H160.844ZM160.844 122.125C160.844 123.149 160.964 124.124 161.259 125.007L165.054 123.743C164.931 123.376 164.844 122.851 164.844 122.125H160.844ZM161.286 125.084C161.592 125.891 162.023 126.63 162.611 127.25L165.514 124.5C165.352 124.328 165.179 124.067 165.026 123.666L161.286 125.084ZM162.648 127.289C163.277 127.918 164.028 128.368 164.868 128.647L166.132 124.853C165.847 124.757 165.64 124.624 165.477 124.461L162.648 127.289ZM164.888 128.654C165.692 128.912 166.536 129.031 167.406 129.031V125.031C166.901 125.031 166.475 124.963 166.112 124.846L164.888 128.654ZM167.406 129.031C169.382 129.031 171.202 128.63 172.641 127.589L170.297 124.348C169.777 124.724 168.889 125.031 167.406 125.031V129.031ZM172.647 127.585C173.996 126.601 174.941 125.28 175.463 123.685L171.662 122.44C171.393 123.261 170.942 123.878 170.29 124.353L172.647 127.585ZM175.457 123.705C175.954 122.237 176.188 120.64 176.188 118.938H172.188C172.188 120.277 172.004 121.43 171.668 122.42L175.457 123.705ZM189.344 86V84H187.344V86H189.344ZM199.094 86H201.094V84H199.094V86ZM199.094 125.969L201.078 126.216L201.094 126.093V125.969H199.094ZM198.094 134V136H199.86L200.078 134.247L198.094 134ZM189.344 134H187.344V136H189.344V134ZM219.375 124.375L217.438 123.876L217.436 123.885L217.434 123.894L219.375 124.375ZM216.969 129.844L218.598 131.004L218.605 130.994L216.969 129.844ZM201.75 133.344L200.732 135.065L200.741 135.07L200.75 135.076L201.75 133.344ZM198.031 129.719L196.353 130.807L198.031 129.719ZM195.594 124.312L193.674 124.875L193.677 124.884L193.68 124.893L195.594 124.312ZM194.188 117.656H192.188V117.796L192.207 117.934L194.188 117.656ZM194.188 116.531L192.207 116.253L192.188 116.392V116.531H194.188ZM195.594 109.875L193.68 109.295L193.677 109.304L193.674 109.313L195.594 109.875ZM201.719 100.875L202.73 102.601L202.737 102.596L201.719 100.875ZM212.844 100.844L211.922 102.619L211.932 102.624L212.844 100.844ZM216.969 104.438L215.332 105.587L215.34 105.598L216.969 104.438ZM219.375 109.875L217.434 110.356L217.436 110.367L217.439 110.378L219.375 109.875ZM210.156 113.062L208.177 113.35L208.18 113.368L208.183 113.385L210.156 113.062ZM209.25 110.031L207.437 110.875L207.448 110.9L207.461 110.926L209.25 110.031ZM207.469 107.938L206.328 109.58L206.354 109.598L206.38 109.615L207.469 107.938ZM199.625 109.438L201.259 110.591L201.267 110.58L201.274 110.569L199.625 109.438ZM198.156 115.438L196.157 115.404L196.156 115.421V115.438H198.156ZM198.156 118.75H196.156V118.763L196.156 118.775L198.156 118.75ZM200.844 126.031L199.661 127.644L199.673 127.653L199.685 127.661L200.844 126.031ZM207.562 126.344L208.605 128.05L208.612 128.046L208.618 128.042L207.562 126.344ZM209.312 124.344L207.515 123.467L207.506 123.485L207.498 123.503L209.312 124.344ZM189.344 88H199.094V84H189.344V88ZM197.094 86V125.969H201.094V86H197.094ZM197.109 125.722L196.109 133.753L200.078 134.247L201.078 126.216L197.109 125.722ZM198.094 132H189.344V136H198.094V132ZM191.344 134V86H187.344V134H191.344ZM218.188 116.719V117.375H222.188V116.719H218.188ZM218.188 117.375C218.188 119.798 217.931 121.961 217.438 123.876L221.312 124.874C221.902 122.581 222.188 120.077 222.188 117.375H218.188ZM217.434 123.894C216.963 125.794 216.254 127.383 215.332 128.694L218.605 130.994C219.85 129.222 220.745 127.164 221.316 124.856L217.434 123.894ZM215.34 128.683C214.442 129.944 213.325 130.905 211.972 131.591L213.778 135.159C215.717 134.178 217.329 132.785 218.598 131.004L215.34 128.683ZM211.972 131.591C210.658 132.256 209.042 132.625 207.062 132.625V136.625C209.541 136.625 211.8 136.161 213.778 135.159L211.972 131.591ZM207.062 132.625C205.278 132.625 203.868 132.257 202.75 131.612L200.75 135.076C202.59 136.139 204.722 136.625 207.062 136.625V132.625ZM202.768 131.622C201.573 130.915 200.553 129.931 199.709 128.63L196.353 130.807C197.509 132.59 198.969 134.022 200.732 135.065L202.768 131.622ZM199.709 128.63C198.827 127.271 198.087 125.645 197.508 123.732L193.68 124.893C194.35 127.105 195.235 129.084 196.353 130.807L199.709 128.63ZM197.513 123.75C196.939 121.791 196.489 119.668 196.168 117.378L192.207 117.934C192.552 120.394 193.04 122.709 193.674 124.875L197.513 123.75ZM196.188 117.656V116.531H192.188V117.656H196.188ZM196.168 116.809C196.489 114.519 196.939 112.397 197.513 110.437L193.674 109.313C193.04 111.478 192.552 113.793 192.207 116.253L196.168 116.809ZM197.508 110.455C198.087 108.542 198.827 106.917 199.709 105.557L196.353 103.38C195.235 105.104 194.35 107.083 193.68 109.295L197.508 110.455ZM199.709 105.557C200.555 104.254 201.563 103.284 202.73 102.601L200.708 99.1492C198.958 100.174 197.508 101.6 196.353 103.38L199.709 105.557ZM202.737 102.596C203.854 101.935 205.249 101.562 207 101.562V97.5625C204.668 97.5625 202.542 98.0646 200.7 99.1536L202.737 102.596ZM207 101.562C208.997 101.562 210.616 101.941 211.922 102.619L213.765 99.0686C211.78 98.0384 209.503 97.5625 207 97.5625V101.562ZM211.932 102.624C213.307 103.329 214.435 104.31 215.332 105.587L218.605 103.288C217.336 101.482 215.713 100.067 213.756 99.0639L211.932 102.624ZM215.34 105.598C216.256 106.884 216.964 108.457 217.434 110.356L221.316 109.394C220.745 107.085 219.849 105.033 218.598 103.277L215.34 105.598ZM217.439 110.378C217.932 112.275 218.188 114.384 218.188 116.719H222.188C222.188 114.095 221.901 111.642 221.311 109.372L217.439 110.378ZM212.438 117.375V116.719H208.438V117.375H212.438ZM212.438 116.719C212.438 115.331 212.337 114.003 212.13 112.74L208.183 113.385C208.351 114.413 208.438 115.523 208.438 116.719H212.438ZM212.135 112.775C211.944 111.455 211.587 110.234 211.039 109.137L207.461 110.926C207.788 111.579 208.036 112.378 208.177 113.35L212.135 112.775ZM211.063 109.188C210.501 107.978 209.667 106.98 208.557 106.26L206.38 109.615C206.812 109.895 207.166 110.293 207.437 110.875L211.063 109.188ZM208.61 106.295C207.437 105.48 206.036 105.156 204.562 105.156V109.156C205.464 109.156 206.001 109.353 206.328 109.58L208.61 106.295ZM204.562 105.156C203.177 105.156 201.871 105.39 200.718 105.952L202.47 109.548C202.942 109.318 203.614 109.156 204.562 109.156V105.156ZM200.718 105.952C199.601 106.496 198.676 107.285 197.976 108.306L201.274 110.569C201.574 110.131 201.961 109.796 202.47 109.548L200.718 105.952ZM197.991 108.284C197.311 109.247 196.855 110.367 196.58 111.593L200.483 112.469C200.666 111.654 200.939 111.044 201.259 110.591L197.991 108.284ZM196.58 111.593C196.316 112.77 196.179 114.043 196.157 115.404L200.156 115.471C200.175 114.332 200.288 113.335 200.483 112.469L196.58 111.593ZM196.156 115.438V118.75H200.156V115.438H196.156ZM196.156 118.775C196.179 120.596 196.418 122.268 196.915 123.757L200.71 122.493C200.373 121.482 200.175 120.237 200.156 118.725L196.156 118.775ZM196.915 123.757C197.445 125.346 198.346 126.68 199.661 127.644L202.026 124.418C201.466 124.008 201.014 123.404 200.71 122.493L196.915 123.757ZM199.685 127.661C201.067 128.644 202.779 129.031 204.625 129.031V125.031C203.305 125.031 202.496 124.752 202.003 124.401L199.685 127.661ZM204.625 129.031C206.069 129.031 207.445 128.76 208.605 128.05L206.52 124.637C206.18 124.845 205.598 125.031 204.625 125.031V129.031ZM208.618 128.042C209.733 127.349 210.574 126.379 211.127 125.185L207.498 123.503C207.26 124.017 206.934 124.38 206.507 124.645L208.618 128.042ZM211.11 125.221C211.639 124.136 211.98 122.903 212.168 121.559L208.207 121.003C208.062 122.035 207.819 122.843 207.515 123.467L211.11 125.221ZM212.168 121.559C212.35 120.265 212.438 118.868 212.438 117.375H208.438C208.438 118.715 208.359 119.923 208.207 121.003L212.168 121.559ZM235.656 86H237.656V84H235.656V86ZM235.656 134V136H237.656V134H235.656ZM225.875 134H223.875V136H225.875V134ZM225.875 86V84H223.875V86H225.875ZM233.656 86V134H237.656V86H233.656ZM235.656 132H225.875V136H235.656V132ZM227.875 134V86H223.875V134H227.875ZM225.875 88H235.656V84H225.875V88ZM252.969 100.188H254.969V98.1875H252.969V100.188ZM252.969 134V136H254.969V134H252.969ZM243.188 134H241.188V136H243.188V134ZM243.188 100.188V98.1875H241.188V100.188H243.188ZM244.094 87.9688L245.428 89.4584L245.437 89.4508L245.445 89.4431L244.094 87.9688ZM251.969 87.9688L250.617 89.4431L250.633 89.4577L250.65 89.472L251.969 87.9688ZM251.969 94.9062L253.303 96.3959L253.305 96.3943L251.969 94.9062ZM244.094 94.9062L242.742 96.3806L242.751 96.3883L242.759 96.3959L244.094 94.9062ZM250.969 100.188V134H254.969V100.188H250.969ZM252.969 132H243.188V136H252.969V132ZM245.188 134V100.188H241.188V134H245.188ZM243.188 102.188H252.969V98.1875H243.188V102.188ZM244.594 91.4375C244.594 90.5539 244.877 89.9518 245.428 89.4584L242.759 86.4791C241.31 87.7774 240.594 89.4878 240.594 91.4375H244.594ZM245.445 89.4431C246.006 88.9291 246.802 88.5938 248.031 88.5938V84.5938C246.011 84.5938 244.182 85.175 242.742 86.4944L245.445 89.4431ZM248.031 88.5938C249.261 88.5938 250.057 88.9291 250.617 89.4431L253.32 86.4944C251.881 85.175 250.052 84.5938 248.031 84.5938V88.5938ZM250.65 89.472C251.217 89.9699 251.5 90.5683 251.5 91.4375H255.5C255.5 89.4734 254.762 87.7593 253.288 86.4655L250.65 89.472ZM251.5 91.4375C251.5 92.2768 251.223 92.8883 250.632 93.4182L253.305 96.3943C254.757 95.0909 255.5 93.3898 255.5 91.4375H251.5ZM250.634 93.4166C250.075 93.9178 249.273 94.25 248.031 94.25V98.25C250.04 98.25 251.863 97.6864 253.303 96.3959L250.634 93.4166ZM248.031 94.25C246.79 94.25 245.988 93.9178 245.428 93.4166L242.759 96.3959C244.2 97.6864 246.023 98.25 248.031 98.25V94.25ZM245.445 93.4319C244.872 92.9064 244.594 92.2911 244.594 91.4375H240.594C240.594 93.3755 241.316 95.0728 242.742 96.3806L245.445 93.4319ZM278.625 124.781L276.91 123.752L276.906 123.76L276.901 123.767L278.625 124.781ZM279.281 122.156V120.156H277.281V122.156H279.281ZM288.469 122.156H290.469V120.156H288.469V122.156ZM286.562 128.656L284.907 127.534L284.903 127.54L284.898 127.547L286.562 128.656ZM281.5 133.062L282.38 134.858L282.387 134.855L282.394 134.851L281.5 133.062ZM267.438 133.344L266.622 135.17L266.63 135.173L266.638 135.177L267.438 133.344ZM259.562 124.25L257.652 124.842L257.656 124.854L257.659 124.865L259.562 124.25ZM259.562 109.969L257.658 109.359L257.655 109.368L257.652 109.377L259.562 109.969ZM267.406 100.875L268.213 102.705L268.222 102.701L267.406 100.875ZM281.625 101.156L280.731 102.945L280.738 102.949L281.625 101.156ZM286.656 105.75L284.944 106.784L284.949 106.792L286.656 105.75ZM288.469 112.906V114.906H290.469V112.906H288.469ZM279.281 112.906H277.281V114.906H279.281V112.906ZM278.688 110L276.849 110.788L276.861 110.815L276.873 110.841L278.688 110ZM276.938 107.938L275.818 109.595L275.843 109.612L275.87 109.628L276.938 107.938ZM271.125 107.938L272.234 109.602L272.245 109.595L271.125 107.938ZM268.594 113.094L270.577 113.351L270.578 113.346L268.594 113.094ZM268.594 121.188L266.609 121.436L266.61 121.44L268.594 121.188ZM269.406 124.219L267.584 125.043L267.592 125.061L267.601 125.079L269.406 124.219ZM274.125 129.031C275.421 129.031 276.652 128.784 277.757 128.217L275.93 124.658C275.494 124.883 274.913 125.031 274.125 125.031V129.031ZM277.757 128.217C278.846 127.658 279.729 126.848 280.349 125.795L276.901 123.767C276.687 124.131 276.383 124.426 275.93 124.658L277.757 128.217ZM280.34 125.81C280.998 124.713 281.281 123.467 281.281 122.156H277.281C277.281 122.888 277.127 123.391 276.91 123.752L280.34 125.81ZM279.281 124.156H288.469V120.156H279.281V124.156ZM286.469 122.156C286.469 124.25 285.934 126.019 284.907 127.534L288.218 129.778C289.733 127.544 290.469 124.979 290.469 122.156H286.469ZM284.898 127.547C283.852 129.116 282.437 130.358 280.606 131.274L282.394 134.851C284.813 133.642 286.773 131.946 288.227 129.766L284.898 127.547ZM280.62 131.267C278.802 132.158 276.713 132.625 274.312 132.625V136.625C277.245 136.625 279.948 136.05 282.38 134.858L280.62 131.267ZM274.312 132.625C271.901 132.625 269.893 132.233 268.237 131.511L266.638 135.177C268.899 136.163 271.474 136.625 274.312 136.625V132.625ZM268.253 131.518C266.557 130.76 265.171 129.72 264.063 128.401L261 130.974C262.517 132.78 264.402 134.178 266.622 135.17L268.253 131.518ZM264.063 128.401C262.926 127.048 262.058 125.467 261.466 123.635L257.659 124.865C258.401 127.158 259.511 129.202 261 130.974L264.063 128.401ZM261.473 123.658C260.892 121.786 260.594 119.737 260.594 117.5H256.594C256.594 120.096 256.941 122.548 257.652 124.842L261.473 123.658ZM260.594 117.5V116.688H256.594V117.5H260.594ZM260.594 116.688C260.594 114.473 260.892 112.435 261.473 110.561L257.652 109.377C256.941 111.67 256.594 114.11 256.594 116.688H260.594ZM261.467 110.578C262.061 108.725 262.929 107.136 264.063 105.786L261 103.214C259.508 104.989 258.398 107.046 257.658 109.359L261.467 110.578ZM264.063 105.786C265.171 104.467 266.545 103.441 268.213 102.705L266.599 99.045C264.393 100.018 262.517 101.408 261 103.214L264.063 105.786ZM268.222 102.701C269.873 101.963 271.876 101.562 274.281 101.562V97.5625C271.437 97.5625 268.856 98.0366 266.59 99.049L268.222 102.701ZM274.281 101.562C276.793 101.562 278.926 102.043 280.731 102.945L282.519 99.3674C280.074 98.1447 277.311 97.5625 274.281 97.5625V101.562ZM280.738 102.949C282.551 103.846 283.938 105.119 284.944 106.784L288.368 104.716C286.958 102.381 284.991 100.591 282.512 99.3639L280.738 102.949ZM284.949 106.792C285.93 108.399 286.469 110.407 286.469 112.906H290.469C290.469 109.822 289.799 107.059 288.363 104.708L284.949 106.792ZM288.469 110.906H279.281V114.906H288.469V110.906ZM281.281 112.906C281.281 111.576 281.037 110.314 280.502 109.159L276.873 110.841C277.129 111.395 277.281 112.07 277.281 112.906H281.281ZM280.526 109.212C279.994 107.972 279.145 106.966 278.005 106.247L275.87 109.628C276.313 109.909 276.631 110.278 276.849 110.788L280.526 109.212ZM278.057 106.28C276.886 105.489 275.514 105.156 274.062 105.156V109.156C274.902 109.156 275.447 109.344 275.818 109.595L278.057 106.28ZM274.062 105.156C272.586 105.156 271.187 105.482 270.005 106.28L272.245 109.595C272.604 109.352 273.164 109.156 274.062 109.156V105.156ZM270.016 106.273C268.922 107.003 268.113 108.01 267.577 109.223L271.236 110.84C271.492 110.26 271.828 109.872 272.234 109.602L270.016 106.273ZM267.577 109.223C267.09 110.324 266.776 111.537 266.61 112.841L270.578 113.346C270.703 112.359 270.93 111.53 271.236 110.84L267.577 109.223ZM266.61 112.837C266.452 114.056 266.375 115.341 266.375 116.688H270.375C270.375 115.493 270.444 114.381 270.577 113.351L266.61 112.837ZM266.375 116.688V117.5H270.375V116.688H266.375ZM266.375 117.5C266.375 118.867 266.452 120.179 266.609 121.436L270.578 120.939C270.444 119.863 270.375 118.717 270.375 117.5H266.375ZM266.61 121.44C266.776 122.745 267.091 123.954 267.584 125.043L271.228 123.394C270.929 122.733 270.703 121.922 270.578 120.935L266.61 121.44ZM267.601 125.079C268.16 126.254 268.974 127.23 270.047 127.945L272.266 124.617C271.839 124.333 271.485 123.933 271.212 123.359L267.601 125.079ZM270.047 127.945C271.225 128.731 272.641 129.031 274.125 129.031V125.031C273.151 125.031 272.588 124.832 272.266 124.617L270.047 127.945ZM303.594 100.188H305.594V98.1875H303.594V100.188ZM303.594 134V136H305.594V134H303.594ZM293.812 134H291.812V136H293.812V134ZM293.812 100.188V98.1875H291.812V100.188H293.812ZM294.719 87.9688L296.053 89.4584L296.062 89.4508L296.07 89.4431L294.719 87.9688ZM302.594 87.9688L301.242 89.4431L301.258 89.4577L301.275 89.472L302.594 87.9688ZM302.594 94.9062L303.928 96.3959L303.93 96.3943L302.594 94.9062ZM294.719 94.9062L293.367 96.3806L293.376 96.3883L293.384 96.3959L294.719 94.9062ZM301.594 100.188V134H305.594V100.188H301.594ZM303.594 132H293.812V136H303.594V132ZM295.812 134V100.188H291.812V134H295.812ZM293.812 102.188H303.594V98.1875H293.812V102.188ZM295.219 91.4375C295.219 90.5539 295.502 89.9518 296.053 89.4584L293.384 86.4791C291.935 87.7774 291.219 89.4878 291.219 91.4375H295.219ZM296.07 89.4431C296.631 88.9291 297.427 88.5938 298.656 88.5938V84.5938C296.636 84.5938 294.807 85.175 293.367 86.4944L296.07 89.4431ZM298.656 88.5938C299.886 88.5938 300.682 88.9291 301.242 89.4431L303.945 86.4944C302.506 85.175 300.677 84.5938 298.656 84.5938V88.5938ZM301.275 89.472C301.842 89.9699 302.125 90.5683 302.125 91.4375H306.125C306.125 89.4734 305.387 87.7593 303.913 86.4655L301.275 89.472ZM302.125 91.4375C302.125 92.2768 301.848 92.8883 301.257 93.4182L303.93 96.3943C305.382 95.0909 306.125 93.3898 306.125 91.4375H302.125ZM301.259 93.4166C300.7 93.9178 299.898 94.25 298.656 94.25V98.25C300.665 98.25 302.488 97.6864 303.928 96.3959L301.259 93.4166ZM298.656 94.25C297.415 94.25 296.613 93.9178 296.053 93.4166L293.384 96.3959C294.825 97.6864 296.648 98.25 298.656 98.25V94.25ZM296.07 93.4319C295.497 92.9064 295.219 92.2911 295.219 91.4375H291.219C291.219 93.3755 291.941 95.0728 293.367 96.3806L296.07 93.4319ZM327.812 100.188H329.812V98.1875H327.812V100.188ZM327.812 107.031V109.031H329.812V107.031H327.812ZM307.75 107.031H305.75V109.031H307.75V107.031ZM307.75 100.188V98.1875H305.75V100.188H307.75ZM312.344 91.8125V89.8125H310.344V91.8125H312.344ZM322.125 91.8125H324.125V89.8125H322.125V91.8125ZM323.594 126.625L322.851 128.482L322.883 128.495L322.916 128.507L323.594 126.625ZM328.25 126.688H330.25V124.304L327.902 124.718L328.25 126.688ZM328.25 133.75L328.868 135.652L330.25 135.203V133.75H328.25ZM325.594 134.375L325.286 132.399L325.265 132.402L325.244 132.406L325.594 134.375ZM317.062 133.594L316.239 135.416L316.248 135.42L317.062 133.594ZM313.562 130.344L311.804 131.296L311.81 131.307L313.562 130.344ZM325.812 100.188V107.031H329.812V100.188H325.812ZM327.812 105.031H307.75V109.031H327.812V105.031ZM309.75 107.031V100.188H305.75V107.031H309.75ZM307.75 102.188H327.812V98.1875H307.75V102.188ZM312.344 93.8125H322.125V89.8125H312.344V93.8125ZM320.125 91.8125V123.406H324.125V91.8125H320.125ZM320.125 123.406C320.125 124.456 320.245 125.512 320.651 126.396L324.287 124.729C324.234 124.613 324.125 124.231 324.125 123.406H320.125ZM320.651 126.396C321.098 127.373 321.864 128.087 322.851 128.482L324.337 124.768C324.311 124.758 324.298 124.75 324.294 124.748C324.29 124.745 324.291 124.746 324.295 124.749C324.299 124.753 324.301 124.755 324.301 124.755C324.3 124.755 324.295 124.747 324.287 124.729L320.651 126.396ZM322.916 128.507C323.731 128.8 324.648 128.906 325.594 128.906V124.906C324.914 124.906 324.499 124.825 324.271 124.743L322.916 128.507ZM325.594 128.906C326.22 128.906 326.79 128.884 327.293 128.834L326.895 124.854C326.564 124.887 326.134 124.906 325.594 124.906V128.906ZM327.293 128.834C327.751 128.788 328.187 128.73 328.598 128.657L327.902 124.718C327.605 124.77 327.27 124.816 326.895 124.854L327.293 128.834ZM326.25 126.688V133.75H330.25V126.688H326.25ZM327.632 131.848C326.908 132.083 326.127 132.268 325.286 132.399L325.901 136.351C326.935 136.19 327.925 135.958 328.868 135.652L327.632 131.848ZM325.244 132.406C324.438 132.549 323.536 132.625 322.531 132.625V136.625C323.735 136.625 324.874 136.534 325.944 136.344L325.244 132.406ZM322.531 132.625C320.641 132.625 319.107 132.316 317.877 131.767L316.248 135.42C318.101 136.247 320.214 136.625 322.531 136.625V132.625ZM317.886 131.771C316.765 131.264 315.922 130.485 315.315 129.381L311.81 131.307C312.828 133.161 314.319 134.548 316.239 135.416L317.886 131.771ZM315.321 129.391C314.718 128.278 314.344 126.69 314.344 124.5H310.344C310.344 127.101 310.782 129.409 311.804 131.296L315.321 129.391ZM314.344 124.5V91.8125H310.344V124.5H314.344ZM335.812 129.812L334.369 131.197L334.379 131.207L334.388 131.217L335.812 129.812ZM335.469 104.531L333.959 103.22L333.957 103.221L335.469 104.531ZM340.531 100.875L341.317 102.714L341.325 102.711L341.333 102.707L340.531 100.875ZM353.781 100.75L353.003 102.592L353.012 102.596L353.021 102.6L353.781 100.75ZM358.531 104.094L357.034 105.42L357.039 105.425L357.044 105.43L358.531 104.094ZM361.469 109.312L359.568 109.933L359.571 109.945L359.575 109.957L361.469 109.312ZM362.5 120.125V122.125H364.5V120.125H362.5ZM335.25 120.125H333.25V122.125H335.25V120.125ZM335.25 113.844V111.844H333.25V113.844H335.25ZM352.938 113.844V115.844H354.938V113.844H352.938ZM352.281 109.969L350.468 110.812L350.476 110.829L350.484 110.846L352.281 109.969ZM350.406 107.906L349.358 109.61L349.383 109.625L349.409 109.64L350.406 107.906ZM342.438 110.031L340.665 109.105L340.661 109.113L340.657 109.12L342.438 110.031ZM341.438 113.188L343.407 113.533L343.408 113.527L341.438 113.188ZM345.719 126.406L344.903 128.232L345.719 126.406ZM353.469 126.188L354.24 128.033L354.252 128.028L354.263 128.023L353.469 126.188ZM357.094 123.375L358.599 122.059L357.029 120.262L355.535 122.122L357.094 123.375ZM361.656 128.594L363.304 129.727L364.184 128.447L363.162 127.277L361.656 128.594ZM358.75 131.5L359.946 133.103L359.95 133.1L358.75 131.5ZM341.531 95.6875L339.844 94.6134L337.887 97.6875H341.531V95.6875ZM347.719 85.9688V83.9688H346.621L346.032 84.8946L347.719 85.9688ZM358.156 85.9688L359.65 87.299L362.616 83.9688H358.156V85.9688ZM349.5 95.6875V97.6875H350.397L350.993 97.0177L349.5 95.6875ZM348.438 132.625C345.962 132.625 343.815 132.232 341.965 131.488L340.473 135.199C342.872 136.164 345.538 136.625 348.438 136.625V132.625ZM341.965 131.488C340.072 130.727 338.507 129.696 337.237 128.408L334.388 131.217C336.077 132.929 338.116 134.252 340.473 135.199L341.965 131.488ZM337.256 128.428C335.981 127.099 335.009 125.573 334.332 123.837L330.605 125.288C331.471 127.51 332.727 129.485 334.369 131.197L337.256 128.428ZM334.332 123.837C333.657 122.102 333.312 120.235 333.312 118.219H329.312C329.312 120.702 329.739 123.064 330.605 125.288L334.332 123.837ZM333.312 118.219V117.031H329.312V118.219H333.312ZM333.312 117.031C333.312 114.699 333.64 112.592 334.272 110.695L330.478 109.43C329.693 111.783 329.312 114.322 329.312 117.031H333.312ZM334.272 110.695C334.905 108.798 335.812 107.189 336.98 105.841L333.957 103.221C332.417 104.998 331.262 107.077 330.478 109.43L334.272 110.695ZM336.979 105.843C338.148 104.496 339.585 103.454 341.317 102.714L339.746 99.0357C337.478 100.004 335.54 101.399 333.959 103.22L336.979 105.843ZM341.333 102.707C343.04 101.96 345.041 101.562 347.375 101.562V97.5625C344.584 97.5625 342.022 98.0396 339.73 99.0427L341.333 102.707ZM347.375 101.562C349.55 101.562 351.414 101.922 353.003 102.592L354.559 98.9075C352.398 97.9952 349.991 97.5625 347.375 97.5625V101.562ZM353.021 102.6C354.625 103.259 355.953 104.199 357.034 105.42L360.028 102.768C358.526 101.071 356.687 99.7823 354.542 98.9002L353.021 102.6ZM357.044 105.43C358.129 106.639 358.978 108.127 359.568 109.933L363.37 108.692C362.626 106.415 361.517 104.424 360.019 102.757L357.044 105.43ZM359.575 109.957C360.181 111.736 360.5 113.785 360.5 116.125H364.5C364.5 113.424 364.132 110.93 363.362 108.668L359.575 109.957ZM360.5 116.125V120.125H364.5V116.125H360.5ZM362.5 118.125H335.25V122.125H362.5V118.125ZM337.25 120.125V113.844H333.25V120.125H337.25ZM335.25 115.844H352.938V111.844H335.25V115.844ZM354.938 113.844V113.094H350.938V113.844H354.938ZM354.938 113.094C354.938 111.66 354.673 110.308 354.078 109.091L350.484 110.846C350.765 111.422 350.938 112.153 350.938 113.094H354.938ZM354.095 109.125C353.509 107.867 352.604 106.863 351.403 106.172L349.409 109.64C349.875 109.908 350.22 110.279 350.468 110.812L354.095 109.125ZM351.454 106.203C350.243 105.457 348.82 105.156 347.312 105.156V109.156C348.305 109.156 348.944 109.355 349.358 109.61L351.454 106.203ZM347.312 105.156C345.848 105.156 344.463 105.466 343.276 106.215L345.412 109.597C345.808 109.347 346.402 109.156 347.312 109.156V105.156ZM343.276 106.215C342.156 106.923 341.29 107.909 340.665 109.105L344.21 110.958C344.543 110.32 344.949 109.89 345.412 109.597L343.276 106.215ZM340.657 109.12C340.089 110.23 339.702 111.482 339.467 112.848L343.408 113.527C343.59 112.476 343.869 111.624 344.218 110.942L340.657 109.12ZM339.468 112.842C339.237 114.158 339.125 115.556 339.125 117.031H343.125C343.125 115.756 343.222 114.592 343.407 113.533L339.468 112.842ZM339.125 117.031V118.219H343.125V117.031H339.125ZM339.125 118.219C339.125 119.711 339.326 121.122 339.755 122.434L343.557 121.191C343.278 120.336 343.125 119.352 343.125 118.219H339.125ZM339.755 122.434C340.186 123.752 340.837 124.928 341.726 125.925L344.711 123.263C344.226 122.718 343.835 122.039 343.557 121.191L339.755 122.434ZM341.726 125.925C342.609 126.915 343.676 127.684 344.903 128.232L346.535 124.58C345.803 124.253 345.204 123.814 344.711 123.263L341.726 125.925ZM344.903 128.232C346.178 128.802 347.577 129.062 349.062 129.062V125.062C348.048 125.062 347.218 124.886 346.535 124.58L344.903 128.232ZM349.062 129.062C350.864 129.062 352.595 128.72 354.24 128.033L352.698 124.342C351.551 124.821 350.345 125.062 349.062 125.062V129.062ZM354.263 128.023C355.979 127.28 357.443 126.133 358.653 124.628L355.535 122.122C354.702 123.158 353.75 123.886 352.674 124.352L354.263 128.023ZM355.588 124.691L360.151 129.91L363.162 127.277L358.599 122.059L355.588 124.691ZM360.008 127.461C359.473 128.239 358.674 129.057 357.55 129.9L359.95 133.1C361.326 132.068 362.464 130.949 363.304 129.727L360.008 127.461ZM357.554 129.897C356.523 130.666 355.24 131.327 353.673 131.855L354.952 135.645C356.844 135.007 358.519 134.167 359.946 133.103L357.554 129.897ZM353.673 131.855C352.186 132.357 350.449 132.625 348.438 132.625V136.625C350.801 136.625 352.98 136.31 354.952 135.645L353.673 131.855ZM343.218 96.7616L349.406 87.0429L346.032 84.8946L339.844 94.6134L343.218 96.7616ZM347.719 87.9688H358.156V83.9688H347.719V87.9688ZM356.663 84.6385L348.007 94.3573L350.993 97.0177L359.65 87.299L356.663 84.6385ZM349.5 93.6875H341.531V97.6875H349.5V93.6875ZM384.656 122.938L383.081 124.17L383.098 124.191L383.114 124.211L384.656 122.938ZM382.594 121.625L381.844 123.479L381.851 123.482L381.858 123.485L382.594 121.625ZM378.438 120.438L378.869 118.485L378.859 118.482L378.848 118.48L378.438 120.438ZM373.719 119.062L372.976 120.919L372.987 120.924L372.999 120.929L373.719 119.062ZM369.906 116.969L368.687 118.554L368.696 118.561L368.706 118.569L369.906 116.969ZM367.375 114.031L365.606 114.964L365.609 114.971L365.613 114.978L367.375 114.031ZM367.375 106.094L365.58 105.211L365.574 105.223L365.569 105.235L367.375 106.094ZM370.062 102.719L368.79 101.176L368.783 101.181L368.777 101.187L370.062 102.719ZM374.375 100.406L373.749 98.5066L373.743 98.5089L374.375 100.406ZM387.906 100.969L387.112 102.804L387.119 102.808L387.127 102.811L387.906 100.969ZM392.906 104.844L391.268 105.991L391.275 106L392.906 104.844ZM394.656 110.5V112.5H396.656V110.5H394.656ZM384.906 110.5H382.906V112.5H384.906V110.5ZM382.875 106.719L381.917 108.475L381.938 108.486L381.959 108.497L382.875 106.719ZM377.844 106.625L378.667 108.448L378.68 108.442L378.693 108.436L377.844 106.625ZM376.312 107.844L374.689 106.675L374.674 106.697L374.659 106.719L376.312 107.844ZM376.094 110.969L374.324 111.9L374.354 111.957L374.387 112.012L376.094 110.969ZM377.125 112.031L375.949 113.649L375.99 113.679L376.032 113.706L377.125 112.031ZM378.969 112.875L378.336 114.772L378.344 114.775L378.352 114.777L378.969 112.875ZM381.781 113.594L381.375 115.552L381.395 115.556L381.416 115.56L381.781 113.594ZM388.219 115.438L387.462 117.289L387.469 117.292L388.219 115.438ZM392.906 118.719L391.372 120.001L391.377 120.008L391.383 120.015L392.906 118.719ZM393.656 128.375L391.904 127.411L391.898 127.422L391.892 127.434L393.656 128.375ZM367.094 128.594L365.402 129.661L365.41 129.673L365.417 129.684L367.094 128.594ZM365.438 123.219V121.219H363.438V123.219H365.438ZM374.594 123.219L376.592 123.145L376.521 121.219H374.594V123.219ZM375.438 125.969L373.826 127.154L373.837 127.169L373.849 127.184L375.438 125.969ZM377.531 127.531L376.804 129.394L376.824 129.402L376.844 129.409L377.531 127.531ZM384.688 126.375L386.288 127.575L386.299 127.559L386.311 127.544L384.688 126.375ZM387.25 124.594C387.25 123.507 386.892 122.504 386.198 121.664L383.114 124.211C383.212 124.33 383.25 124.431 383.25 124.594H387.25ZM386.231 121.705C385.527 120.805 384.441 120.205 383.33 119.765L381.858 123.485C382.747 123.837 383.035 124.111 383.081 124.17L386.231 121.705ZM383.343 119.771C382.213 119.314 380.703 118.89 378.869 118.485L378.006 122.39C379.756 122.777 381.016 123.145 381.844 123.479L383.343 119.771ZM378.848 118.48C377.255 118.146 375.787 117.717 374.439 117.196L372.999 120.929C374.567 121.533 376.245 122.021 378.027 122.395L378.848 118.48ZM374.462 117.206C373.141 116.677 372.029 116.061 371.106 115.369L368.706 118.569C369.95 119.502 371.38 120.281 372.976 120.919L374.462 117.206ZM371.126 115.384C370.25 114.71 369.598 113.944 369.137 113.085L365.613 114.978C366.36 116.369 367.396 117.561 368.687 118.554L371.126 115.384ZM369.144 113.098C368.71 112.275 368.469 111.3 368.469 110.125H364.469C364.469 111.867 364.832 113.496 365.606 114.964L369.144 113.098ZM368.469 110.125C368.469 109.003 368.706 107.953 369.181 106.952L365.569 105.235C364.836 106.776 364.469 108.413 364.469 110.125H368.469ZM369.17 106.976C369.663 105.973 370.378 105.065 371.348 104.251L368.777 101.187C367.413 102.331 366.337 103.672 365.58 105.211L369.17 106.976ZM371.335 104.262C372.306 103.461 373.517 102.8 375.007 102.304L373.743 98.5089C371.858 99.1372 370.194 100.018 368.79 101.176L371.335 104.262ZM375 102.306C376.471 101.822 378.191 101.562 380.188 101.562V97.5625C377.85 97.5625 375.696 97.8656 373.75 98.5066L375 102.306ZM380.188 101.562C382.963 101.562 385.253 102 387.112 102.804L388.7 99.1332C386.227 98.0628 383.371 97.5625 380.188 97.5625V101.562ZM387.127 102.811C389.003 103.604 390.349 104.677 391.268 105.991L394.545 103.697C393.131 101.677 391.143 100.167 388.686 99.1268L387.127 102.811ZM391.275 106C392.188 107.289 392.656 108.766 392.656 110.5H396.656C396.656 107.984 395.957 105.69 394.538 103.687L391.275 106ZM394.656 108.5H384.906V112.5H394.656V108.5ZM386.906 110.5C386.906 109.37 386.69 108.283 386.184 107.301L382.629 109.136C382.789 109.446 382.906 109.88 382.906 110.5H386.906ZM386.184 107.301C385.647 106.262 384.823 105.472 383.791 104.941L381.959 108.497C382.302 108.673 382.499 108.884 382.629 109.136L386.184 107.301ZM383.833 104.963C382.751 104.373 381.479 104.156 380.156 104.156V108.156C381.083 108.156 381.624 108.315 381.917 108.475L383.833 104.963ZM380.156 104.156C379.042 104.156 377.973 104.356 376.995 104.814L378.693 108.436C379.048 108.269 379.52 108.156 380.156 108.156V104.156ZM377.021 104.802C376.09 105.223 375.29 105.841 374.689 106.675L377.936 109.012C378.085 108.805 378.306 108.611 378.667 108.448L377.021 104.802ZM374.659 106.719C374.058 107.602 373.781 108.606 373.781 109.656H377.781C377.781 109.331 377.858 109.127 377.966 108.968L374.659 106.719ZM373.781 109.656C373.781 110.436 373.954 111.197 374.324 111.9L377.864 110.037C377.817 109.949 377.781 109.835 377.781 109.656H373.781ZM374.387 112.012C374.787 112.666 375.336 113.203 375.949 113.649L378.301 110.414C377.997 110.192 377.859 110.022 377.8 109.926L374.387 112.012ZM376.032 113.706C376.698 114.14 377.481 114.487 378.336 114.772L379.601 110.978C378.957 110.763 378.511 110.547 378.218 110.356L376.032 113.706ZM378.352 114.777C379.213 115.057 380.225 115.313 381.375 115.552L382.188 111.635C381.129 111.416 380.267 111.193 379.586 110.973L378.352 114.777ZM381.416 115.56C383.655 115.976 385.667 116.556 387.462 117.289L388.975 113.586C386.895 112.736 384.616 112.086 382.147 111.627L381.416 115.56ZM387.469 117.292C389.172 117.98 390.447 118.896 391.372 120.001L394.441 117.436C393.032 115.75 391.182 114.478 388.968 113.583L387.469 117.292ZM391.383 120.015C392.192 120.965 392.688 122.311 392.688 124.25H396.688C396.688 121.606 395.996 119.264 394.43 117.423L391.383 120.015ZM392.688 124.25C392.688 125.431 392.42 126.472 391.904 127.411L395.409 129.339C396.267 127.778 396.688 126.069 396.688 124.25H392.688ZM391.892 127.434C391.381 128.392 390.621 129.266 389.563 130.047L391.937 133.266C393.42 132.172 394.599 130.858 395.421 129.316L391.892 127.434ZM389.563 130.047C388.509 130.824 387.207 131.459 385.623 131.925L386.752 135.762C388.71 135.187 390.45 134.363 391.937 133.266L389.563 130.047ZM385.623 131.925C384.069 132.382 382.264 132.625 380.188 132.625V136.625C382.569 136.625 384.764 136.347 386.752 135.762L385.623 131.925ZM380.188 132.625C377.233 132.625 374.87 132.094 373.015 131.131L371.173 134.682C373.734 136.011 376.767 136.625 380.188 136.625V132.625ZM373.015 131.131C371.05 130.112 369.671 128.888 368.77 127.503L365.417 129.684C366.766 131.757 368.721 133.409 371.173 134.682L373.015 131.131ZM368.785 127.527C367.856 126.054 367.438 124.627 367.438 123.219H363.438C363.438 125.477 364.123 127.634 365.402 129.661L368.785 127.527ZM365.438 125.219H374.594V121.219H365.438V125.219ZM372.595 123.293C372.647 124.707 373.009 126.042 373.826 127.154L377.049 124.784C376.824 124.478 376.623 123.981 376.592 123.145L372.595 123.293ZM373.849 127.184C374.619 128.191 375.619 128.932 376.804 129.394L378.258 125.668C377.735 125.464 377.339 125.163 377.026 124.754L373.849 127.184ZM376.844 129.409C377.952 129.815 379.148 130 380.406 130V126C379.54 126 378.819 125.873 378.218 125.653L376.844 129.409ZM380.406 130C381.636 130 382.8 129.833 383.824 129.412L382.301 125.713C381.908 125.875 381.302 126 380.406 126V130ZM383.824 129.412C384.79 129.014 385.653 128.421 386.288 127.575L383.087 125.175C382.972 125.329 382.751 125.528 382.301 125.713L383.824 129.412ZM386.311 127.544C386.941 126.669 387.25 125.662 387.25 124.594H383.25C383.25 124.858 383.184 125.04 383.064 125.206L386.311 127.544Z" fill="#F069AB"/>
<path d="M29.9062 43.75H40.0312C39.8646 46.875 39.0104 49.6354 37.4688 52.0312C35.9479 54.4062 33.8333 56.2708 31.125 57.625C28.4167 58.9583 25.1979 59.625 21.4688 59.625C18.4896 59.625 15.8229 59.1146 13.4688 58.0938C11.1146 57.0729 9.11458 55.6146 7.46875 53.7188C5.84375 51.8021 4.59375 49.5 3.71875 46.8125C2.86458 44.1042 2.4375 41.0521 2.4375 37.6562V34.875C2.4375 31.4792 2.88542 28.4271 3.78125 25.7188C4.67708 23.0104 5.95833 20.6979 7.625 18.7812C9.29167 16.8646 11.2917 15.3958 13.625 14.375C15.9583 13.3542 18.5625 12.8438 21.4375 12.8438C25.3125 12.8438 28.5833 13.5417 31.25 14.9375C33.9167 16.3333 35.9792 18.25 37.4375 20.6875C38.9167 23.125 39.8021 25.9062 40.0938 29.0312H29.9375C29.8542 27.2604 29.5208 25.7708 28.9375 24.5625C28.3542 23.3333 27.4583 22.4062 26.25 21.7812C25.0417 21.1562 23.4375 20.8438 21.4375 20.8438C19.9792 20.8438 18.6979 21.1146 17.5938 21.6562C16.5104 22.1979 15.6042 23.0417 14.875 24.1875C14.1667 25.3333 13.6354 26.7917 13.2812 28.5625C12.9271 30.3125 12.75 32.3958 12.75 34.8125V37.6562C12.75 40.0521 12.9062 42.125 13.2188 43.875C13.5312 45.625 14.0312 47.0729 14.7188 48.2188C15.4271 49.3646 16.3333 50.2188 17.4375 50.7812C18.5417 51.3438 19.8854 51.625 21.4688 51.625C23.2812 51.625 24.7917 51.3438 26 50.7812C27.2083 50.1979 28.1354 49.3229 28.7812 48.1562C29.4271 46.9896 29.8021 45.5208 29.9062 43.75ZM43.7812 42.4375V41.7812C43.7812 39.3021 44.1354 37.0208 44.8438 34.9375C45.5521 32.8333 46.5938 31.0104 47.9688 29.4688C49.3438 27.9271 51.0312 26.7292 53.0312 25.875C55.0312 25 57.3229 24.5625 59.9062 24.5625C62.5312 24.5625 64.8438 25 66.8438 25.875C68.8646 26.7292 70.5625 27.9271 71.9375 29.4688C73.3125 31.0104 74.3542 32.8333 75.0625 34.9375C75.7708 37.0208 76.125 39.3021 76.125 41.7812V42.4375C76.125 44.8958 75.7708 47.1771 75.0625 49.2812C74.3542 51.3646 73.3125 53.1875 71.9375 54.75C70.5625 56.2917 68.875 57.4896 66.875 58.3438C64.875 59.1979 62.5729 59.625 59.9688 59.625C57.3854 59.625 55.0833 59.1979 53.0625 58.3438C51.0417 57.4896 49.3438 56.2917 47.9688 54.75C46.5938 53.1875 45.5521 51.3646 44.8438 49.2812C44.1354 47.1771 43.7812 44.8958 43.7812 42.4375ZM53.5625 41.7812V42.4375C53.5625 43.7708 53.6667 45.0208 53.875 46.1875C54.1042 47.3542 54.4688 48.375 54.9688 49.25C55.4688 50.125 56.125 50.8125 56.9375 51.3125C57.7708 51.7917 58.7812 52.0312 59.9688 52.0312C61.1562 52.0312 62.1562 51.7917 62.9688 51.3125C63.7812 50.8125 64.4375 50.125 64.9375 49.25C65.4375 48.375 65.7917 47.3542 66 46.1875C66.2292 45.0208 66.3438 43.7708 66.3438 42.4375V41.7812C66.3438 40.4688 66.2292 39.2396 66 38.0938C65.7917 36.9271 65.4375 35.8958 64.9375 35C64.4375 34.1042 63.7708 33.4062 62.9375 32.9062C62.125 32.4062 61.1146 32.1562 59.9062 32.1562C58.7396 32.1562 57.75 32.4062 56.9375 32.9062C56.125 33.4062 55.4688 34.1042 54.9688 35C54.4688 35.8958 54.1042 36.9271 53.875 38.0938C53.6667 39.2396 53.5625 40.4688 53.5625 41.7812ZM90.8125 32.4062V59H81.0312V25.1875H90.2188L90.8125 32.4062ZM89.5312 40.9062L87.0938 40.9688C87.0938 38.4271 87.4062 36.1458 88.0312 34.125C88.6562 32.1042 89.5417 30.3854 90.6875 28.9688C91.8542 27.5312 93.2396 26.4375 94.8438 25.6875C96.4688 24.9375 98.2604 24.5625 100.219 24.5625C101.802 24.5625 103.25 24.7917 104.562 25.25C105.875 25.7083 107 26.4479 107.938 27.4688C108.896 28.4688 109.625 29.8021 110.125 31.4688C110.625 33.1146 110.875 35.1458 110.875 37.5625V59H101.062V37.5312C101.062 36.1146 100.865 35.0208 100.469 34.25C100.073 33.4792 99.4896 32.9375 98.7188 32.625C97.9688 32.3125 97.0521 32.1562 95.9688 32.1562C94.8229 32.1562 93.8438 32.3854 93.0312 32.8438C92.2188 33.2812 91.5521 33.8958 91.0312 34.6875C90.5104 35.4792 90.125 36.4062 89.875 37.4688C89.6458 38.5312 89.5312 39.6771 89.5312 40.9062ZM129.375 59H119.562V23.9688C119.562 21.0312 120.167 18.5521 121.375 16.5312C122.604 14.5104 124.365 12.9792 126.656 11.9375C128.948 10.875 131.708 10.3438 134.938 10.3438C136.792 10.3438 138.573 10.5104 140.281 10.8438C142.01 11.1771 143.792 11.6146 145.625 12.1562L144.25 19.9375C143.062 19.5833 141.802 19.2604 140.469 18.9688C139.135 18.6771 137.5 18.5312 135.562 18.5312C133.562 18.5312 132.031 19 130.969 19.9375C129.906 20.8542 129.375 22.1979 129.375 23.9688V59ZM136.031 25.1875V32.0312H114.594V25.1875H136.031ZM150.125 25.1875V59H140.344V25.1875H150.125ZM173.062 59.625C170.375 59.625 167.969 59.1979 165.844 58.3438C163.719 57.4896 161.917 56.3125 160.438 54.8125C158.979 53.2917 157.865 51.5417 157.094 49.5625C156.323 47.5833 155.938 45.4688 155.938 43.2188V42.0312C155.938 39.5104 156.292 37.1875 157 35.0625C157.708 32.9375 158.74 31.0938 160.094 29.5312C161.469 27.9479 163.156 26.7292 165.156 25.875C167.156 25 169.438 24.5625 172 24.5625C174.396 24.5625 176.531 24.9583 178.406 25.75C180.281 26.5208 181.865 27.6354 183.156 29.0938C184.448 30.5312 185.427 32.2708 186.094 34.3125C186.781 36.3333 187.125 38.6042 187.125 41.125V45.125H159.875V38.8438H177.562V38.0938C177.562 36.9062 177.344 35.8646 176.906 34.9688C176.49 34.0729 175.865 33.3854 175.031 32.9062C174.219 32.4062 173.188 32.1562 171.938 32.1562C170.75 32.1562 169.76 32.4062 168.969 32.9062C168.177 33.4062 167.542 34.1146 167.062 35.0312C166.604 35.9271 166.271 36.9792 166.062 38.1875C165.854 39.375 165.75 40.6562 165.75 42.0312V43.2188C165.75 44.5312 165.927 45.7292 166.281 46.8125C166.635 47.8958 167.156 48.8229 167.844 49.5938C168.531 50.3646 169.365 50.9688 170.344 51.4062C171.323 51.8438 172.438 52.0625 173.688 52.0625C175.229 52.0625 176.698 51.7708 178.094 51.1875C179.49 50.5833 180.698 49.6458 181.719 48.375L186.281 53.5938C185.594 54.5938 184.625 55.5625 183.375 56.5C182.146 57.4167 180.667 58.1667 178.938 58.75C177.208 59.3333 175.25 59.625 173.062 59.625ZM219.219 51.4062V59H193.281V51.4062H219.219ZM218.812 30.625L197.469 59H190.844V53.375L212.125 25.1875H218.812V30.625ZM215.469 25.1875V32.7812H191.406V25.1875H215.469ZM243.812 35.625V43.25H225.625V35.625H243.812ZM261.25 32.4062V59H251.469V25.1875H260.656L261.25 32.4062ZM259.969 40.9062L257.531 40.9688C257.531 38.4271 257.844 36.1458 258.469 34.125C259.094 32.1042 259.979 30.3854 261.125 28.9688C262.292 27.5312 263.677 26.4375 265.281 25.6875C266.906 24.9375 268.698 24.5625 270.656 24.5625C272.24 24.5625 273.688 24.7917 275 25.25C276.312 25.7083 277.438 26.4479 278.375 27.4688C279.333 28.4688 280.062 29.8021 280.562 31.4688C281.062 33.1146 281.312 35.1458 281.312 37.5625V59H271.5V37.5312C271.5 36.1146 271.302 35.0208 270.906 34.25C270.51 33.4792 269.927 32.9375 269.156 32.625C268.406 32.3125 267.49 32.1562 266.406 32.1562C265.26 32.1562 264.281 32.3854 263.469 32.8438C262.656 33.2812 261.99 33.8958 261.469 34.6875C260.948 35.4792 260.562 36.4062 260.312 37.4688C260.083 38.5312 259.969 39.6771 259.969 40.9062ZM286.281 42.4375V41.7812C286.281 39.3021 286.635 37.0208 287.344 34.9375C288.052 32.8333 289.094 31.0104 290.469 29.4688C291.844 27.9271 293.531 26.7292 295.531 25.875C297.531 25 299.823 24.5625 302.406 24.5625C305.031 24.5625 307.344 25 309.344 25.875C311.365 26.7292 313.062 27.9271 314.438 29.4688C315.812 31.0104 316.854 32.8333 317.562 34.9375C318.271 37.0208 318.625 39.3021 318.625 41.7812V42.4375C318.625 44.8958 318.271 47.1771 317.562 49.2812C316.854 51.3646 315.812 53.1875 314.438 54.75C313.062 56.2917 311.375 57.4896 309.375 58.3438C307.375 59.1979 305.073 59.625 302.469 59.625C299.885 59.625 297.583 59.1979 295.562 58.3438C293.542 57.4896 291.844 56.2917 290.469 54.75C289.094 53.1875 288.052 51.3646 287.344 49.2812C286.635 47.1771 286.281 44.8958 286.281 42.4375ZM296.062 41.7812V42.4375C296.062 43.7708 296.167 45.0208 296.375 46.1875C296.604 47.3542 296.969 48.375 297.469 49.25C297.969 50.125 298.625 50.8125 299.438 51.3125C300.271 51.7917 301.281 52.0312 302.469 52.0312C303.656 52.0312 304.656 51.7917 305.469 51.3125C306.281 50.8125 306.938 50.125 307.438 49.25C307.938 48.375 308.292 47.3542 308.5 46.1875C308.729 45.0208 308.844 43.7708 308.844 42.4375V41.7812C308.844 40.4688 308.729 39.2396 308.5 38.0938C308.292 36.9271 307.938 35.8958 307.438 35C306.938 34.1042 306.271 33.4062 305.438 32.9062C304.625 32.4062 303.615 32.1562 302.406 32.1562C301.24 32.1562 300.25 32.4062 299.438 32.9062C298.625 33.4062 297.969 34.1042 297.469 35C296.969 35.8958 296.604 36.9271 296.375 38.0938C296.167 39.2396 296.062 40.4688 296.062 41.7812ZM343.594 50.8438V25.1875H353.406V59H344.219L343.594 50.8438ZM344.625 43.9375L347.312 43.875C347.312 46.1458 347.042 48.2396 346.5 50.1562C345.979 52.0729 345.188 53.7396 344.125 55.1562C343.083 56.5729 341.781 57.6771 340.219 58.4688C338.677 59.2396 336.875 59.625 334.812 59.625C333.146 59.625 331.615 59.3958 330.219 58.9375C328.844 58.4583 327.656 57.7188 326.656 56.7188C325.656 55.6979 324.885 54.3958 324.344 52.8125C323.802 51.2083 323.531 49.2917 323.531 47.0625V25.1875H333.281V47.125C333.281 48 333.385 48.75 333.594 49.375C333.823 49.9792 334.125 50.4792 334.5 50.875C334.896 51.2708 335.375 51.5625 335.938 51.75C336.521 51.9375 337.156 52.0312 337.844 52.0312C339.573 52.0312 340.927 51.6771 341.906 50.9688C342.906 50.2396 343.604 49.2708 344 48.0625C344.417 46.8333 344.625 45.4583 344.625 43.9375ZM377.75 49.5938C377.75 48.9688 377.552 48.4167 377.156 47.9375C376.781 47.4583 376.094 47.0208 375.094 46.625C374.115 46.2292 372.729 45.8333 370.938 45.4375C369.25 45.0833 367.677 44.625 366.219 44.0625C364.76 43.4792 363.49 42.7812 362.406 41.9688C361.323 41.1354 360.479 40.1562 359.875 39.0312C359.271 37.8854 358.969 36.5833 358.969 35.125C358.969 33.7083 359.271 32.3646 359.875 31.0938C360.5 29.8229 361.396 28.6979 362.562 27.7188C363.75 26.7396 365.188 25.9688 366.875 25.4062C368.583 24.8438 370.521 24.5625 372.688 24.5625C375.667 24.5625 378.24 25.0312 380.406 25.9688C382.573 26.8854 384.24 28.1771 385.406 29.8438C386.573 31.4896 387.156 33.375 387.156 35.5H377.406C377.406 34.625 377.24 33.8646 376.906 33.2188C376.573 32.5729 376.062 32.0729 375.375 31.7188C374.688 31.3438 373.781 31.1562 372.656 31.1562C371.781 31.1562 371.01 31.3125 370.344 31.625C369.698 31.9167 369.188 32.3229 368.812 32.8438C368.458 33.3646 368.281 33.9688 368.281 34.6562C368.281 35.1354 368.385 35.5729 368.594 35.9688C368.823 36.3438 369.167 36.6979 369.625 37.0312C370.104 37.3438 370.719 37.625 371.469 37.875C372.24 38.125 373.177 38.3646 374.281 38.5938C376.635 39.0312 378.781 39.6458 380.719 40.4375C382.677 41.2292 384.24 42.3229 385.406 43.7188C386.594 45.1146 387.188 46.9583 387.188 49.25C387.188 50.75 386.844 52.125 386.156 53.375C385.49 54.625 384.521 55.7188 383.25 56.6562C381.979 57.5938 380.458 58.3229 378.688 58.8438C376.917 59.3646 374.917 59.625 372.688 59.625C369.5 59.625 366.802 59.0521 364.594 57.9062C362.385 56.7604 360.719 55.3229 359.594 53.5938C358.49 51.8438 357.938 50.0521 357.938 48.2188H367.094C367.135 49.3438 367.417 50.2604 367.938 50.9688C368.479 51.6771 369.177 52.1979 370.031 52.5312C370.885 52.8438 371.844 53 372.906 53C373.969 53 374.854 52.8542 375.562 52.5625C376.271 52.2708 376.812 51.875 377.188 51.375C377.562 50.8542 377.75 50.2604 377.75 49.5938ZM15.0938 127.094L22.1562 100.188H32.4062L21.1875 134H15.0312L15.0938 127.094ZM10.5312 100.188L17.5625 127.125L17.625 134H11.4688L0.25 100.188H10.5312ZM34.0938 117.438V116.781C34.0938 114.302 34.4479 112.021 35.1562 109.938C35.8646 107.833 36.9062 106.01 38.2812 104.469C39.6562 102.927 41.3438 101.729 43.3438 100.875C45.3438 100 47.6354 99.5625 50.2188 99.5625C52.8438 99.5625 55.1562 100 57.1562 100.875C59.1771 101.729 60.875 102.927 62.25 104.469C63.625 106.01 64.6667 107.833 65.375 109.938C66.0833 112.021 66.4375 114.302 66.4375 116.781V117.438C66.4375 119.896 66.0833 122.177 65.375 124.281C64.6667 126.365 63.625 128.188 62.25 129.75C60.875 131.292 59.1875 132.49 57.1875 133.344C55.1875 134.198 52.8854 134.625 50.2812 134.625C47.6979 134.625 45.3958 134.198 43.375 133.344C41.3542 132.49 39.6562 131.292 38.2812 129.75C36.9062 128.188 35.8646 126.365 35.1562 124.281C34.4479 122.177 34.0938 119.896 34.0938 117.438ZM43.875 116.781V117.438C43.875 118.771 43.9792 120.021 44.1875 121.188C44.4167 122.354 44.7812 123.375 45.2812 124.25C45.7812 125.125 46.4375 125.812 47.25 126.312C48.0833 126.792 49.0938 127.031 50.2812 127.031C51.4688 127.031 52.4688 126.792 53.2812 126.312C54.0938 125.812 54.75 125.125 55.25 124.25C55.75 123.375 56.1042 122.354 56.3125 121.188C56.5417 120.021 56.6562 118.771 56.6562 117.438V116.781C56.6562 115.469 56.5417 114.24 56.3125 113.094C56.1042 111.927 55.75 110.896 55.25 110C54.75 109.104 54.0833 108.406 53.25 107.906C52.4375 107.406 51.4271 107.156 50.2188 107.156C49.0521 107.156 48.0625 107.406 47.25 107.906C46.4375 108.406 45.7812 109.104 45.2812 110C44.7812 110.896 44.4167 111.927 44.1875 113.094C43.9792 114.24 43.875 115.469 43.875 116.781ZM89.5625 124.594C89.5625 123.969 89.3646 123.417 88.9688 122.938C88.5938 122.458 87.9062 122.021 86.9062 121.625C85.9271 121.229 84.5417 120.833 82.75 120.438C81.0625 120.083 79.4896 119.625 78.0312 119.062C76.5729 118.479 75.3021 117.781 74.2188 116.969C73.1354 116.135 72.2917 115.156 71.6875 114.031C71.0833 112.885 70.7812 111.583 70.7812 110.125C70.7812 108.708 71.0833 107.365 71.6875 106.094C72.3125 104.823 73.2083 103.698 74.375 102.719C75.5625 101.74 77 100.969 78.6875 100.406C80.3958 99.8438 82.3333 99.5625 84.5 99.5625C87.4792 99.5625 90.0521 100.031 92.2188 100.969C94.3854 101.885 96.0521 103.177 97.2188 104.844C98.3854 106.49 98.9688 108.375 98.9688 110.5H89.2188C89.2188 109.625 89.0521 108.865 88.7188 108.219C88.3854 107.573 87.875 107.073 87.1875 106.719C86.5 106.344 85.5938 106.156 84.4688 106.156C83.5938 106.156 82.8229 106.312 82.1562 106.625C81.5104 106.917 81 107.323 80.625 107.844C80.2708 108.365 80.0938 108.969 80.0938 109.656C80.0938 110.135 80.1979 110.573 80.4062 110.969C80.6354 111.344 80.9792 111.698 81.4375 112.031C81.9167 112.344 82.5312 112.625 83.2812 112.875C84.0521 113.125 84.9896 113.365 86.0938 113.594C88.4479 114.031 90.5938 114.646 92.5312 115.438C94.4896 116.229 96.0521 117.323 97.2188 118.719C98.4062 120.115 99 121.958 99 124.25C99 125.75 98.6562 127.125 97.9688 128.375C97.3021 129.625 96.3333 130.719 95.0625 131.656C93.7917 132.594 92.2708 133.323 90.5 133.844C88.7292 134.365 86.7292 134.625 84.5 134.625C81.3125 134.625 78.6146 134.052 76.4062 132.906C74.1979 131.76 72.5312 130.323 71.4062 128.594C70.3021 126.844 69.75 125.052 69.75 123.219H78.9062C78.9479 124.344 79.2292 125.26 79.75 125.969C80.2917 126.677 80.9896 127.198 81.8438 127.531C82.6979 127.844 83.6562 128 84.7188 128C85.7812 128 86.6667 127.854 87.375 127.562C88.0833 127.271 88.625 126.875 89 126.375C89.375 125.854 89.5625 125.26 89.5625 124.594Z" fill="white"/>
</svg>
